<?xml version="1.0" encoding="utf-8"?>
<!-- Svg Vector Icons : http://www.onlinewebfonts.com/icon -->
<!DOCTYPE svg PUBLIC "-//W3C//DTD SVG 1.1//EN" "http://www.w3.org/Graphics/SVG/1.1/DTD/svg11.dtd">
<svg version="1.1" xmlns="http://www.w3.org/2000/svg" xmlns:xlink="http://www.w3.org/1999/xlink" x="0px" y="0px" viewBox="0 0 256 256" enable-background="new 0 0 256 256" xml:space="preserve">
<metadata> Svg Vector Icons : http://www.onlinewebfonts.com/icon </metadata>
<g><g><g><path fill="#000000" d="M120.5,10c-18.3,1.6-32.6,5.6-47.4,13.3C51.6,34.6,33.3,53.2,22.4,74.9C13.9,91.8,10,108.7,10,128.2c0,14.3,1.7,24.4,6.2,37.8c14.3,42.4,51.3,72.9,96.2,79.1c36.6,5,74.2-8,100.3-34.9C250,171.6,256.7,113,229,67c-9.3-15.5-24.1-30.3-39.5-39.9c-13.9-8.5-29.3-13.9-45.9-16.3C138.4,10.2,124.6,9.7,120.5,10z M113.1,36.8c2.4,1,33.1,31.6,34.3,34.2c1.1,2.4,1.1,6.4,0,8.8c-0.6,1.2-5,6-12.6,13.5c-10.3,10.2-12,11.7-13.8,12.1c-2.4,0.6-5.2,0.4-7.4-0.6c-0.9-0.4-8.7-7.9-17.8-17C79.6,71.4,79.5,71.4,79,68.8c-0.5-2.1-0.5-3.1,0-5.1c0.6-2.4,1-2.9,12.2-14.2c7.5-7.6,12.2-12,13.4-12.6C106.9,35.9,110.7,35.9,113.1,36.8z M163.8,77.9c3.1,1.5,15.9,14.5,17.3,17.4c1.2,2.6,1.2,6,0,8.7c-0.7,1.6-5.7,6.8-20.2,21.3c-20.3,20.3-21.3,21.1-25.3,21.1c-4.2,0-5.1-0.6-13.5-8.9c-4.4-4.4-8.3-8.5-8.7-9.3c-0.4-0.7-0.8-2.4-0.9-3.8c-0.5-5-0.6-4.8,20.6-26.2c14.5-14.5,19.8-19.6,21.5-20.4C157.5,76.3,160.7,76.3,163.8,77.9z M187.7,111.3c2.5,1.2,33.2,32,34.2,34.3c0.9,2.2,0.9,5.9,0,8.1c-0.9,2.2-22.3,23.8-24.9,25.2c-2.5,1.3-6.7,1.3-9.2,0c-1.1-0.6-8.8-7.9-17.8-17.1c-14.6-14.7-16-16.3-16.6-18.3c-0.6-2.5-0.4-5.6,0.7-7.9c0.9-1.9,22.5-23.2,24.7-24.4C180.9,110.1,185.3,110.1,187.7,111.3z M108.8,132.8c10.3,2.7,17.8,12.2,17.8,22.9c0,5.6-2.4,11.9-6,15.6c-1.6,1.6-2.2,1.9-3.6,1.9c-1.6,0-2.5-0.8-16.6-14.9c-14.4-14.4-14.9-15-14.9-16.7c0-1.5,0.3-2,2-3.6c2.3-2.1,7.6-4.8,10.5-5.4C101.2,132,105.8,132.1,108.8,132.8z M77.9,140.5c0.6,0.6,1.1,1.8,1.3,2.7c3.2,16.5,17.3,31.3,34,35.6c2.1,0.6,4.3,1.4,4.9,1.9c1.4,1.3,1.4,3.7-0.2,5.3c-1,1-1.4,1.2-3.3,0.9c-5.5-0.7-16-5.4-22.2-10c-9.2-6.9-16.4-17.4-19.7-28.5c-1.3-4.8-1.4-6.1-0.1-7.7C73.8,139.1,76.5,139,77.9,140.5z M68,161.6c0.9,0.3,1.7,1.7,3.3,4.9c4.7,10,11.1,16.3,21.3,21.1c2.9,1.4,3.9,2.1,4.3,3.1c1,2.4-0.8,5.1-3.5,5.1c-1.9,0-9.5-3.9-13.6-6.9c-6.4-4.8-12.1-11.9-15.6-19.2c-2.2-4.7-2-6.6,0.5-8C66.1,161.1,66.6,161.1,68,161.6z M60.3,180.2c0.5,0.6,1.8,2.3,2.8,3.8c2.7,4.1,7.5,8.7,12,11.6c4.4,2.9,5.3,4.1,4.3,6.3c-1.6,3.8-5.6,2.7-13.4-3.6c-5.2-4.2-11.9-13-11.9-15.6C54.1,179.7,58.3,178,60.3,180.2z"/><path fill="#000000" d="M97.1,54.3c-8.9,8.9-10.8,11-10.8,12.1c0,1.1,2.5,3.8,15.2,16.5C114.1,95.4,116.9,98,118,98c1,0,3.2-1.9,12-10.8c8.3-8.3,10.8-11.1,10.8-12c0-1.7-30.2-31.9-31.9-31.9C108.2,43.5,105.3,46.1,97.1,54.3z"/><path fill="#000000" d="M139.3,102.4c-10.1,10.1-18.7,19-19.1,19.7c-0.4,0.7-0.6,1.7-0.4,2.1c0.4,1.4,14.3,14.9,15.2,14.9c1,0,38.8-37.5,39.3-38.9c0.1-0.5,0-1.1-0.1-1.5c-0.2-0.4-3.5-3.8-7.2-7.6c-5.3-5.4-7.1-6.9-8-6.9C158,84.1,154.1,87.7,139.3,102.4z"/><path fill="#000000" d="M171.2,128.8c-6.6,6.7-10.9,11.3-10.9,11.9s5.9,6.8,15.3,16.3c13.4,13.5,15.5,15.4,16.8,15.4c1.2,0,2.8-1.4,12.1-10.8c8.1-8.1,10.7-11,10.7-11.9c0-1.7-30.2-31.9-31.9-31.9C182.4,117.8,179.7,120.3,171.2,128.8z"/><path fill="#000000" d="M99.3,140.2c-1.2,0.3-2.6,0.9-3.3,1.2l-1.3,0.6l11,11l11,11l1.1-2.5c1.3-3,1.4-8.3,0.3-11.4c-1.8-4.8-6.1-8.7-11.1-10C103.7,139.4,102.1,139.4,99.3,140.2z"/></g></g></g>
</svg>